<?xml version="1.0" encoding="UTF-8" standalone="no"?>
<svg
   xmlns:dc="http://purl.org/dc/elements/1.1/"
   xmlns:cc="http://creativecommons.org/ns#"
   xmlns:rdf="http://www.w3.org/1999/02/22-rdf-syntax-ns#"
   xmlns:svg="http://www.w3.org/2000/svg"
   xmlns="http://www.w3.org/2000/svg"
   version="1.1"
   id="svg4159"
   viewBox="0 0 49.999988 49.999998"
   height="14.111111mm"
   width="14.111108mm">
  <defs
     id="defs4161" />
  <metadata
     id="metadata4164">
    <rdf:RDF>
      <cc:Work
         rdf:about="">
        <dc:format>image/svg+xml</dc:format>
        <dc:type
           rdf:resource="http://purl.org/dc/dcmitype/StillImage" />
        <dc:title></dc:title>
      </cc:Work>
    </rdf:RDF>
  </metadata>
  <g
     transform="translate(-472.14286,-458.79078)"
     id="layer1">
    <g
       transform="matrix(1.0887188,0,0,0.99829923,-41.876592,0.82342418)"
       style="stroke:#000000;stroke-opacity:1;stroke-width:1.91841149;stroke-miterlimit:4;stroke-dasharray:none;fill:#ffffff;fill-opacity:1"
       id="g4791">
      <path
         style="opacity:1;fill:#ffffff;fill-opacity:1;stroke:#000000;stroke-width:1.91841149;stroke-linecap:round;stroke-linejoin:round;stroke-miterlimit:4;stroke-dasharray:none;stroke-opacity:1"
         d="m 0.3515625,11.427734 0,38.935547 39.2968755,0 0,-50.0117185 -27.863282,0 0,11.0761715 -11.4335935,0 z"
         id="path4731"
         transform="translate(472.14286,458.79078)" />
      <path
         style="opacity:1;fill:#ffffff;fill-opacity:1;stroke:#000000;stroke-width:1.91841149;stroke-linecap:round;stroke-linejoin:round;stroke-miterlimit:4;stroke-dasharray:none;stroke-opacity:1"
         d="m 0.3515625,11.427734 11.4335935,0 0,-11.0761715 -0.183594,0 L 0.3515625,11.427734 Z"
         id="rect4725"
         transform="translate(472.14286,458.79078)" />
    </g>
    <path
       id="path4767-8"
       d="m 479.55358,483.96934 25.17857,0"
       style="fill:none;fill-rule:evenodd;stroke:#000000;stroke-width:2;stroke-linecap:round;stroke-linejoin:miter;stroke-opacity:1;stroke-miterlimit:4;stroke-dasharray:none" />
    <path
       id="path4767-0"
       d="m 479.55358,492.18363 18.75,0"
       style="fill:none;fill-rule:evenodd;stroke:#000000;stroke-width:2;stroke-linecap:round;stroke-linejoin:miter;stroke-opacity:1;stroke-miterlimit:4;stroke-dasharray:none" />
    <g
       transform="matrix(0.9773976,0.21140938,-0.21140938,0.9773976,111.01409,-93.632301)"
       id="g4823">
      <path
         style="opacity:1;fill:#ffffff;fill-opacity:1;stroke:#000000;stroke-width:2.39646602;stroke-linecap:round;stroke-linejoin:round;stroke-miterlimit:4;stroke-dasharray:none;stroke-opacity:1"
         d="m 511.66881,468.27179 6.73947,3.66901 -15.49141,28.45563 -6.73948,-3.66902 z"
         id="rect4733" />
      <path
         style="opacity:1;fill:#ffffff;fill-opacity:1;stroke:#000000;stroke-width:2.39646602;stroke-linecap:round;stroke-linejoin:round;stroke-miterlimit:4;stroke-dasharray:none;stroke-opacity:1"
         d="m 517.42997,464.59913 c -1.49384,-0.81326 -3.20186,-0.54845 -4.01645,0.55146 l -0.0355,-0.0193 -0.14933,0.27429 -1.49699,2.74978 6.74065,3.66965 1.497,-2.74978 0.14932,-0.27429 -0.0355,-0.0193 c 0.48169,-1.28113 -0.22569,-2.8609 -1.71953,-3.67415 l -0.9337,-0.50832 z"
         id="rect4733-9" />
      <path
         style="opacity:1;fill:#ffffff;fill-opacity:1;stroke:#000000;stroke-width:2.39646602;stroke-linecap:round;stroke-linejoin:round;stroke-miterlimit:4;stroke-dasharray:none;stroke-opacity:1"
         d="m 502.87728,500.46846 -6.54662,4.0017 -0.19226,-7.67038 z"
         id="path4752" />
    </g>
    <path
       id="path4767"
       d="m 479.55358,476.64792 25.17857,0"
       style="fill:none;fill-rule:evenodd;stroke:#000000;stroke-width:2;stroke-linecap:round;stroke-linejoin:miter;stroke-opacity:1;stroke-miterlimit:4;stroke-dasharray:none" />
  </g>
</svg>
